<svg xmlns="http://www.w3.org/2000/svg" viewBox="0 0 1280 640" width="1280" height="640" role="img" aria-label="Thebes: a lambda architecture for realtime data, in Clojure">
<title>Thebes</title>
<defs><filter id="ink" x="-5%" y="-5%" width="110%" height="110%">
  <feTurbulence type="fractalNoise" baseFrequency="0.035" numOctaves="2" seed="7" result="noise"/>
  <feDisplacementMap in="SourceGraphic" in2="noise" scale="1.8" xChannelSelector="R" yChannelSelector="G"/>
</filter></defs>
<style>
  .art path, .art circle { fill: none; stroke: #2b2118; stroke-width: 1.5; stroke-linecap: round; stroke-linejoin: round; }
  .art .thin { stroke-width: 0.8; }
  .art .dots { stroke-width: 1.6; }
  .word { fill: #2b2118; font-family: Georgia, 'Iowan Old Style', 'Times New Roman', serif; }
</style>
<rect width="1280" height="640" fill="#f3ead8"/>
<rect x="28" y="28" width="1224" height="584" fill="none" stroke="#2b2118" stroke-opacity="0.35" stroke-width="1.5"/>
<g class="art" filter="url(#ink)" transform="translate(36 110) scale(1.75)"><circle cx="318" cy="58" r="17" fill="none"/><circle cx="318.8" cy="57.4" r="16.4" fill="none" class="thin"/><path class="thin" d="M339.5 61.3 Q342.8 61.4 345.9 61.6 M335.4 71.8 Q337.8 73.2 339.8 75.3 M326.1 78.7 Q327.5 81.1 328.4 84.2 M315.1 79.7 Q314.4 82.7 314.4 85.7 M304.6 75.5 Q302.7 77.7 300.5 79.9 M297.5 66.4 Q294.9 67.5 291.8 68.5 M296.4 55.1 Q293.3 54.3 290.3 54.2 M300.7 44.3 Q298.3 42.7 295.7 40.7 M309.6 37.6 Q308.7 34.8 307.8 32.3 M321.4 36.3 Q321.3 33.2 321.8 30.2 M331.5 40.5 Q333.5 38.4 335.0 35.8 M338.2 49.7 Q341.2 48.7 344.0 47.6"/><path class="thin" d="M72 49.6 Q75.0 47.2 78 52 Q81.0 47.2 84 49.6 M87.5 42.2 Q89.75 40.4 92 44 Q94.25 40.4 96.5 42.2 M100.5 56.6 Q102.25 55.2 104 58 Q105.75 55.2 107.5 56.6"/><mask id="behind-a" maskUnits="userSpaceOnUse" x="0" y="0" width="400" height="240"><rect width="400" height="240" fill="#fff"/><polygon fill="#000" points="166,41.5 85.5,151 248.5,151"/></mask><mask id="behind-ab" maskUnits="userSpaceOnUse" x="0" y="0" width="400" height="240"><rect width="400" height="240" fill="#fff"/><polygon fill="#000" points="166,41.5 85.5,151 248.5,151"/><polygon fill="#000" points="246,75.5 193.5,151 302.5,151"/></mask><g mask="url(#behind-ab)"><path d="M276.5 150.6 Q287.8 127.3 301.4 106.6 M276.6 150.7 Q289.5 128.3 301.4 105.3 M302.7 106.4 Q317.2 127.2 329.7 150.0 M302.2 105.6 Q314.9 128.7 330.5 149.6"/><path d="M301.2 106.6 Q305.8 128.0 310.2 150.1 M301.9 106.3 Q306.3 127.9 310.2 150.0"/><path d="M272.4 150.1 Q303.0 150.4 334.3 150.1 M271.9 150.0 Q303.0 149.6 333.9 150.2"/><clipPath id="shade-c"><polygon points="302,106 310,150 330,150"/></clipPath><path clip-path="url(#shade-c)" class="thin" d="M338.1 57.4 Q362.0 103.5 386.4 150.0 M334.3 58.7 Q359.4 104.9 383.3 150.5 M331.4 60.3 Q356.3 106.6 380.7 152.6 M328.5 62.5 Q352.8 108.5 377.2 154.2 M325.4 64.5 Q350.2 109.8 374.3 155.9 M322.8 64.8 Q346.9 111.6 371.6 157.5 M319.6 67.0 Q344.8 112.7 368.5 158.6 M316.1 69.2 Q341.0 114.7 365.4 160.2 M313.1 70.8 Q338.2 116.2 362.7 162.3 M311.0 72.2 Q334.5 118.2 359.1 164.2 M307.3 73.6 Q331.8 119.6 356.2 165.2 M304.2 75.1 Q329.5 120.8 354.1 167.1 M300.7 76.8 Q325.3 123.1 350.6 168.3 M298.0 78.5 Q322.6 124.5 347.1 170.9 M295.3 79.4 Q319.3 126.2 344.5 172.3 M292.5 81.2 Q317.2 127.4 341.8 172.7 M290.0 83.3 Q314.9 128.6 339.1 174.4 M287.2 85.0 Q311.1 130.6 335.9 177.1 M284.3 86.1 Q308.7 131.9 334.1 177.3 M281.7 87.5 Q306.6 133.0 330.8 179.5 M278.3 88.4 Q303.2 134.8 327.3 180.8 M275.0 90.8 Q299.8 136.6 324.0 183.1 M271.9 92.3 Q297.1 138.1 321.7 184.5 M269.7 93.9 Q293.9 139.7 317.8 185.7 M266.0 95.8 Q291.4 141.1 315.5 187.7 M262.6 97.3 Q287.6 143.1 311.7 188.6 M260.2 98.8 Q284.2 144.9 308.2 190.7 M257.0 99.7 Q281.4 146.4 306.6 192.6 M254.5 101.6 Q278.8 147.8 303.5 193.6 M251.1 103.1 Q275.7 149.4 300.0 195.8 M248.3 105.6 Q272.9 150.9 297.4 197.5 M245.6 106.4 Q269.4 152.8 295.0 198.9"/><path class="thin" d="M297.1 120.1 Q299.4 121.5 303.1 122.7 M287.7 134.6 Q296.5 136.1 305.4 135.8"/></g><g mask="url(#behind-a)"><path d="M195.6 149.8 Q222.1 114.8 245.5 77.4 M195.9 149.5 Q221.1 114.1 245.7 78.0 M245.8 77.3 Q273.9 113.3 300.7 149.8 M245.4 78.4 Q272.5 114.4 299.3 149.8"/><path d="M246.4 78.4 Q253.2 114.2 261.4 150.5 M246.6 78.8 Q253.8 114.0 262.1 150.7"/><path d="M191.7 150.6 Q248.0 150.6 303.6 149.4 M192.5 150.0 Q248.0 149.9 304.4 150.7"/><clipPath id="shade-b"><polygon points="246,78 262,150 300,150"/></clipPath><path clip-path="url(#shade-b)" class="thin" d="M310.6 -8.2 Q352.1 72.0 394.2 151.4 M307.7 -6.3 Q350.6 72.7 392.9 152.6 M305.7 -5.3 Q347.4 74.4 389.6 153.8 M303.5 -3.9 Q345.7 75.4 387.2 154.8 M299.5 -1.7 Q342.0 77.3 384.0 157.3 M296.8 -1.1 Q339.8 78.5 381.3 158.6 M293.7 1.4 Q336.5 80.2 379.1 159.4 M290.7 2.5 Q333.4 81.9 375.8 161.8 M287.8 3.4 Q330.0 83.7 373.2 163.2 M285.2 5.2 Q326.9 85.3 369.4 164.7 M282.8 7.2 Q325.1 86.3 367.7 166.4 M280.2 8.3 Q321.8 88.0 363.9 167.4 M277.1 9.7 Q320.0 89.0 362.4 168.4 M275.4 10.6 Q317.6 90.3 359.3 169.7 M271.7 12.6 Q315.0 91.7 356.4 170.9 M269.5 13.7 Q311.8 93.4 353.9 173.1 M265.8 15.9 Q308.9 94.9 350.8 175.1 M264.0 16.7 Q306.4 96.3 348.1 175.3 M261.1 17.9 Q303.7 97.7 346.2 176.8 M258.7 19.5 Q301.6 98.8 343.4 178.6 M256.3 21.1 Q297.6 100.9 340.8 179.7 M253.6 23.0 Q296.3 101.6 338.3 181.6 M251.5 23.9 Q294.0 102.8 336.3 182.1 M248.1 24.8 Q289.9 105.0 332.4 183.7 M244.7 26.6 Q287.4 106.3 329.9 186.0 M242.7 28.8 Q284.9 107.7 327.0 186.7 M239.3 30.1 Q281.8 109.3 323.7 189.1 M237.4 31.5 Q279.2 110.7 321.5 190.1 M233.8 33.1 Q276.3 112.3 318.9 191.5 M231.8 33.3 Q274.5 113.2 316.9 193.3 M228.4 35.8 Q270.8 115.1 313.1 194.2 M226.3 37.4 Q268.4 116.4 310.3 195.8 M223.1 38.2 Q265.2 118.1 307.3 198.1 M220.8 40.1 Q263.3 119.1 304.9 198.2 M217.5 40.7 Q260.2 120.8 301.9 200.6 M215.0 42.9 Q257.2 122.4 299.4 201.7 M212.6 43.8 Q255.1 123.5 297.2 203.0 M209.1 46.1 Q252.4 124.9 294.6 204.2 M207.2 47.0 Q248.9 126.8 291.3 205.6 M203.6 49.2 Q246.5 128.1 288.6 207.7 M202.2 49.6 Q243.8 129.5 286.2 209.4 M199.4 51.7 Q241.1 131.0 283.3 210.8 M196.1 53.5 Q237.5 132.9 280.5 211.7 M192.2 54.9 Q234.1 134.7 277.2 214.2 M189.2 56.0 Q231.6 136.0 274.2 216.0 M187.0 58.1 Q229.0 137.4 271.9 217.3 M185.1 58.6 Q226.6 138.7 269.8 217.8 M181.5 60.1 Q224.6 139.7 266.1 219.4 M179.4 61.9 Q221.3 141.5 264.0 220.5 M175.5 63.8 Q218.6 142.9 260.1 222.1 M173.3 65.6 Q215.9 144.4 257.6 223.7 M170.8 66.7 Q212.4 146.2 254.9 225.5 M167.6 68.0 Q209.1 148.0 252.3 227.3 M164.7 69.7 Q207.6 148.8 249.4 228.8 M162.8 71.3 Q205.1 150.1 247.0 229.8 M160.2 72.5 Q202.4 151.5 244.8 231.7 M155.7 73.9 Q198.2 153.8 240.5 233.4 M154.2 75.6 Q196.2 154.8 238.2 233.9 M151.2 76.5 Q193.9 156.1 236.0 235.8"/><path class="thin" d="M235.9 96.2 Q242.2 97.3 248.3 98.2 M224.7 114.3 Q238.0 114.9 251.3 115.6 M210.7 131.6 Q233.7 132.5 255.7 133.8"/></g><path d="M88.5 150.0 Q127.9 97.6 165.6 44.6 M88.6 149.5 Q126.5 96.6 165.6 44.7 M165.2 44.1 Q206.4 96.7 246.5 150.2 M165.7 44.6 Q205.3 97.5 245.9 149.5"/><path d="M166.5 44.8 Q178.8 96.8 189.8 149.3 M165.4 43.6 Q178.7 96.8 190.5 150.7"/><path d="M84.6 150.5 Q167.0 150.6 249.9 150.3 M84.0 150.0 Q167.0 150.1 250.1 149.4"/><clipPath id="shade-a"><polygon points="166,44 190,150 246,150"/></clipPath><path clip-path="url(#shade-a)" class="thin" d="M260.5 -82.3 Q323.2 34.7 385.8 151.9 M257.3 -80.7 Q320.2 36.3 382.2 153.2 M254.7 -79.0 Q317.4 37.8 379.8 155.2 M252.4 -78.0 Q314.6 39.3 376.6 157.0 M249.3 -76.2 Q312.1 40.6 373.8 158.2 M246.7 -75.3 Q308.9 42.3 372.0 159.2 M243.4 -73.0 Q305.8 43.9 367.6 160.8 M240.4 -72.1 Q303.1 45.4 365.0 162.1 M237.9 -70.2 Q300.4 46.8 362.8 164.7 M234.2 -68.2 Q296.8 48.7 359.6 166.3 M231.1 -67.4 Q294.1 50.2 355.9 167.0 M228.5 -65.3 Q291.2 51.7 353.5 168.4 M225.7 -63.6 Q288.6 53.1 351.0 170.2 M223.9 -63.3 Q285.8 54.6 348.6 171.4 M221.0 -61.0 Q283.0 56.0 346.3 173.2 M218.7 -60.2 Q280.4 57.4 343.5 174.0 M214.6 -58.0 Q277.6 58.9 340.2 176.3 M213.1 -57.2 Q275.2 60.2 337.5 178.0 M209.9 -55.1 Q271.7 62.1 334.6 179.2 M207.5 -54.3 Q269.5 63.2 332.4 180.5 M204.3 -52.7 Q266.5 64.8 329.3 182.0 M201.5 -51.5 Q264.1 66.1 326.8 183.6 M198.8 -49.3 Q260.4 68.1 323.7 184.6 M195.8 -47.8 Q257.9 69.4 320.5 186.3 M192.1 -46.5 Q254.7 71.1 317.0 188.5 M190.6 -44.5 Q252.8 72.1 314.4 189.9 M187.7 -44.0 Q250.2 73.5 312.4 191.1 M184.7 -41.4 Q247.2 75.1 309.1 192.9 M181.7 -40.3 Q244.5 76.5 306.1 194.2 M179.1 -39.3 Q240.5 78.6 302.6 195.9 M174.8 -37.3 Q237.4 80.3 299.6 197.5 M172.1 -36.1 Q234.7 81.7 296.9 199.2 M169.9 -34.0 Q232.8 82.7 295.3 199.9 M168.1 -32.6 Q229.8 84.4 291.9 201.1 M165.6 -31.8 Q228.0 85.3 290.1 202.9 M162.0 -30.3 Q224.9 86.9 287.2 204.0 M160.1 -28.9 Q221.8 88.6 284.2 206.0 M156.1 -26.8 Q218.4 90.4 280.6 208.0 M152.6 -25.2 Q215.8 91.8 277.5 208.8 M151.3 -23.8 Q213.5 93.0 276.1 210.7 M147.9 -22.4 Q209.7 95.0 271.9 212.0 M144.3 -20.1 Q207.0 96.5 268.6 213.4 M141.5 -18.5 Q202.9 98.7 265.1 215.2 M139.2 -17.8 Q201.4 99.4 263.0 216.6 M135.9 -17.0 Q198.7 100.9 260.5 217.7 M133.2 -14.9 Q196.2 102.2 258.5 220.2 M130.6 -13.7 Q193.4 103.7 255.1 221.7 M127.4 -10.9 Q189.3 105.9 251.8 222.9 M125.0 -10.1 Q186.7 107.3 249.3 224.7 M121.9 -8.5 Q184.8 108.3 246.8 225.9 M119.1 -6.9 Q181.5 110.0 243.6 227.3 M117.0 -6.1 Q179.0 111.3 241.4 228.6 M114.2 -5.0 Q176.4 112.7 239.4 229.6 M111.2 -2.8 Q173.5 114.3 236.9 231.8 M109.7 -1.8 Q170.9 115.6 234.2 232.8 M106.4 -0.3 Q169.2 116.6 230.6 234.2 M103.9 0.4 Q166.2 118.2 228.6 234.8 M101.0 2.8 Q163.1 119.8 225.4 237.2 M98.2 4.0 Q159.8 121.6 222.0 238.3 M95.6 5.0 Q157.8 122.6 220.6 239.6 M92.3 6.7 Q155.2 124.0 217.1 241.7 M90.6 8.1 Q152.4 125.5 215.5 242.5 M86.9 9.6 Q149.1 127.2 211.3 244.7 M84.1 11.4 Q146.1 128.9 208.9 245.7 M81.2 13.4 Q143.8 130.1 206.2 246.9 M78.3 14.0 Q140.2 132.0 203.2 248.8 M74.2 16.8 Q136.6 133.9 199.9 250.8 M72.1 17.6 Q134.3 135.1 197.1 252.0 M69.3 19.3 Q131.2 136.8 193.4 253.7 M65.9 21.1 Q128.4 138.2 189.9 256.2 M62.5 23.1 Q125.0 140.1 187.2 257.7 M59.6 24.5 Q122.1 141.6 183.9 259.5 M56.2 26.5 Q118.8 143.4 181.1 260.2 M53.5 28.0 Q115.9 144.9 178.8 261.9 M51.3 28.9 Q113.5 146.2 176.4 263.1 M47.2 31.3 Q109.9 148.1 172.7 265.7 M44.9 32.4 Q107.5 149.4 169.5 266.8 M42.9 33.8 Q104.9 150.8 166.9 268.0 M39.3 35.1 Q101.7 152.5 164.2 269.9 M36.6 37.2 Q98.6 154.1 161.6 270.7 M34.7 38.2 Q97.1 154.9 159.3 272.0 M30.7 39.6 Q93.3 156.9 155.6 274.5 M28.5 41.6 Q90.3 158.5 152.9 275.8"/><path class="thin" d="M156.0 62.0 Q162.0 62.2 167.7 62.0 M142.7 78.7 Q157.5 79.5 172.3 80.9 M129.2 97.1 Q153.0 97.7 176.0 98.7 M116.8 113.9 Q148.5 115.3 179.9 115.7 M103.8 131.7 Q144.0 133.2 183.9 134.0"/><path d="M20.1 150.7 Q39.0 150.1 57.4 150.1 M19.6 151.3 Q39.0 150.0 58.6 149.4"/><path d="M83.9 149.4 Q228.0 150.3 371.4 150.7 M83.4 149.3 Q228.0 150.0 371.6 150.8"/><path class="thin" d="M336 150 Q352 144 372 149 M20 150 Q34 145 50 149"/><path d="M60 151 C 84 160, 48 170, 92 182 S 214 200, 178 238"/><path class="thin" transform="translate(0.9 0.6)" d="M60 151 C 84 160, 48 170, 92 182 S 214 200, 178 238"/><path d="M80 151 C 112 160, 84 172, 140 184 S 300 202, 276 238"/><path class="thin" transform="translate(0.9 0.6)" d="M80 151 C 112 160, 84 172, 140 184 S 300 202, 276 238"/><path class="thin" d="M70 157 q2.0 -2 4.0 0 t4.0 0 M78 165 q2.5 -2 5.0 0 t5.0 0 M100 176 q3.5 -2 7.0 0 t7.0 0 M124 186 q4.5 -2 9.0 0 t9.0 0 M150 194 q5.5 -2 11.0 0 t11.0 0 M176 203 q6.0 -2 12.0 0 t12.0 0 M200 213 q6.5 -2 13.0 0 t13.0 0 M206 226 q7.0 -2 14.0 0 t14.0 0 M150 182 q2.5 -2 5.0 0 t5.0 0 M226 202 q3.5 -2 7.0 0 t7.0 0"/><path d="M36 172 Q36.8 153.3 30 138"/><path class="thin" transform="translate(0.8 0)" d="M36 172 Q36.8 153.3 30 138"/><path d="M30.0 138.0 Q21.8 129.3 13.6 130.6 M30.0 138.0 Q24.8 126.9 19.6 125.8 M30.0 138.0 Q33.7 125.4 37.5 122.7 M30.0 138.0 Q39.2 130.6 48.4 133.1 M30.0 138.0 Q29.5 127.0 29.1 126.0 M30.0 138.0 Q23.2 134.7 16.4 141.4 M30.0 138.0 Q36.4 135.7 42.9 143.5"/><path class="thin" d="M33.8 166.2 Q35.5 165.8 37.0 165.7 M33.1 160.9 Q34.7 160.1 36.5 159.9 M32.3 154.9 Q33.8 154.7 35.5 154.4 M31.0 149.3 Q32.6 148.8 34.2 148.3 M29.9 143.6 Q31.4 143.3 32.9 143.0"/><path d="M54 166 Q57.0 151.7 59 140"/><path class="thin" transform="translate(0.8 0)" d="M54 166 Q57.0 151.7 59 140"/><path d="M59.0 140.0 Q50.8 131.2 42.7 132.4 M59.0 140.0 Q54.5 128.4 49.9 126.8 M59.0 140.0 Q63.6 127.8 68.1 125.6 M59.0 140.0 Q68.1 132.2 77.1 134.4 M59.0 140.0 Q58.5 129.0 58.0 128.0 M59.0 140.0 Q52.1 136.4 45.3 142.8 M59.0 140.0 Q65.6 137.3 72.2 144.6"/><path class="thin" d="M52.6 161.9 Q54.4 161.1 55.9 160.8 M53.6 157.5 Q55.1 156.8 56.7 156.4 M54.1 152.9 Q55.9 152.6 57.4 152.1 M55.2 148.8 Q56.8 148.1 58.2 147.8 M56.4 144.3 Q57.9 143.9 59.4 143.6"/><path d="M330 192 Q332.8 175.5 334 162"/><path class="thin" transform="translate(0.8 0)" d="M330 192 Q332.8 175.5 334 162"/><path d="M334.0 162.0 Q325.6 153.8 317.2 155.6 M334.0 162.0 Q329.1 150.7 324.2 149.3 M334.0 162.0 Q338.5 149.8 343.0 147.6 M334.0 162.0 Q342.9 153.6 351.8 155.3 M334.0 162.0 Q332.9 151.1 331.8 150.2 M334.0 162.0 Q327.3 158.9 320.6 165.9 M334.0 162.0 Q340.7 159.0 347.4 165.9"/><path class="thin" d="M328.8 187.1 Q330.4 186.8 331.8 186.1 M329.3 182.0 Q330.9 181.7 332.6 181.3 M329.9 177.0 Q331.5 176.6 333.3 176.2 M330.9 171.8 Q332.3 171.8 333.8 171.1 M331.6 167.1 Q333.1 166.6 334.6 166.4"/><path class="thin" d="M65.8 196 Q64.5 191.3 64.4 186.7 M68.8 196 Q69.8 193.4 68.2 190.8 M72.6 196 Q73.8 190.8 70.1 185.6 M75.5 196 Q75.6 191.2 77.3 186.3 M78.3 196 Q79.7 193.4 76.9 190.8 M82.2 196 Q83.1 193.4 82.2 190.8"/><path class="thin" d="M289.3 214 Q290.1 208.8 287.7 203.7 M292.8 214 Q292.2 209.5 293.6 204.9 M296.2 214 Q295.1 208.9 296.7 203.8 M300.4 214 Q300.0 210.9 298.5 207.8 M303.3 214 Q304.7 211.5 302.1 209.0 M305.7 214 Q306.3 211.1 308.0 208.3 M309.8 214 Q308.7 211.4 309.5 208.7"/><path class="thin" d="M149.9 236 Q148.4 231.2 152.2 226.4 M152.5 236 Q153.2 231.3 153.7 226.5 M156.7 236 Q155.8 233.0 159.1 229.9 M159.7 236 Q160.1 230.7 160.7 225.4 M163.1 236 Q163.3 231.8 165.1 227.7"/><path class="dots" d="M361.8 212.6 h0.1 M378.7 204.3 h0.1 M378.1 171.6 h0.1 M374.7 201.5 h0.1 M290.2 184.5 h0.1 M344.0 215.0 h0.1 M272.5 198.3 h0.1 M245.9 166.4 h0.1 M286.2 221.5 h0.1 M314.1 193.3 h0.1 M252.1 208.2 h0.1 M320.4 196.7 h0.1 M361.4 179.5 h0.1 M359.0 204.7 h0.1 M304.3 204.0 h0.1 M252.9 220.1 h0.1 M368.0 199.7 h0.1 M312.7 194.4 h0.1 M330.7 233.5 h0.1 M276.6 205.6 h0.1 M227.4 177.6 h0.1 M276.7 228.7 h0.1 M222.3 163.8 h0.1 M353.1 193.2 h0.1 M373.3 169.6 h0.1 M362.3 198.7 h0.1 M344.0 218.5 h0.1 M339.7 188.6 h0.1 M323.5 213.8 h0.1 M266.3 200.6 h0.1 M330.7 199.2 h0.1 M338.5 163.6 h0.1 M315.2 176.5 h0.1 M374.6 170.4 h0.1 M268.1 187.1 h0.1 M310.4 202.2 h0.1 M351.2 234.7 h0.1 M307.4 171.3 h0.1 M359.7 165.4 h0.1 M335.0 184.0 h0.1"/></g>
<text class="word" x="992" y="290" text-anchor="middle" font-size="84" letter-spacing="16">THEBES</text>
<text class="word" x="992" y="350" text-anchor="middle" font-size="25" font-style="italic" opacity="0.85">A lambda architecture for realtime data,</text>
<text class="word" x="992" y="384" text-anchor="middle" font-size="25" font-style="italic" opacity="0.85">written in Clojure</text>
<text class="word" x="992" y="452" text-anchor="middle" font-size="19" letter-spacing="1.5" opacity="0.6">batch ⊕ speed = every event, exactly once</text>
</svg>
